<svg width="312" height="252" viewBox="0 0 312 252" fill="none" xmlns="http://www.w3.org/2000/svg">
<path d="M293.05 101.035C306.275 124.175 311.984 150.854 309.388 177.381L263.968 186.166" stroke="#3B3748" stroke-width="4" stroke-linecap="round" stroke-linejoin="round"/>
<path d="M268.222 113.151V127.033" stroke="#3B3748" stroke-width="4" stroke-linecap="round" stroke-linejoin="round"/>
<path d="M224.615 113.337C218.133 108.092 211.446 102.729 203.461 100.299C195.477 97.8687 185.823 99.0488 180.37 105.358C174.766 111.847 175.14 121.614 177.532 129.85C184.329 153.238 205.832 171.636 229.988 174.725" stroke="#3B3748" stroke-width="4" stroke-linecap="round" stroke-linejoin="round"/>
<path d="M203.877 121.573C201.28 128.563 203.173 137.004 208.505 142.216" stroke="#3B3748" stroke-width="4" stroke-linecap="round" stroke-linejoin="round"/>
<path d="M247.813 193.322C246.977 194.975 246.123 196.698 246.082 198.55C246.042 200.402 247.066 202.419 248.859 202.886C251.659 203.62 253.825 200.502 255.04 197.873C256.255 195.244 257.247 191.507 254.847 189.835C253.234 188.717 250.89 189.375 249.517 190.779C248.144 192.182 247.512 194.128 246.923 195.999" stroke="#3B3748" stroke-width="4" stroke-linecap="round" stroke-linejoin="round"/>
<path d="M241.01 73.3279C227.914 65.0106 212.057 62.0536 196.469 64.473C182.225 66.8924 169.325 72.5376 160.187 84.3657C154.543 92.1616 152.393 102.914 157.685 110.917C151.455 113.579 157.182 110.111 157.685 110.917C151.455 113.579 146.064 118.006 142.003 123.407C137.921 128.819 135.214 135.142 134.115 141.832C133.035 148.504 133.8 155.345 136.327 161.614C138.893 167.876 142.953 173.413 148.152 177.743C153.285 182.045 159.464 185.136 166.057 186.394C166.868 186.55 167.684 186.677 168.502 186.776C162.302 188.873 156.099 190.999 150.079 193.582C138.684 198.623 127.665 204.806 120.677 216.096C114.496 226.58 112.346 239.484 118.258 250" stroke="#3B3748" stroke-width="4" stroke-linecap="round" stroke-linejoin="round"/>
<path d="M290.587 67.6128L303.359 58.7659" stroke="#3B3748" stroke-width="4" stroke-linecap="round" stroke-linejoin="round"/>
<path d="M276.419 58.3548L282.378 42.2631" stroke="#3B3748" stroke-width="4" stroke-linecap="round" stroke-linejoin="round"/>
<path d="M258.27 53.0187L256.243 38.575" stroke="#3B3748" stroke-width="4" stroke-linecap="round" stroke-linejoin="round"/>
<path d="M213.316 194.529C216.889 203.718 223.111 211.638 231.192 217.285" stroke="#3B3748" stroke-width="4" stroke-linecap="round" stroke-linejoin="round"/>
<path d="M113.305 165.743C90.0499 172.408 63.6527 166.862 45.0413 151.399C39.8194 147.06 34.9925 141.619 33.7536 134.942C32.5146 128.264 36.1724 120.35 42.7972 118.907C48.5701 117.649 54.5929 121.815 56.7322 127.324C58.8715 132.832 57.732 139.176 55.0982 144.466C50.4272 153.853 41.01 160.722 30.6414 162.294C20.2728 163.867 9.24567 160.104 2 152.523" stroke="#3B3748" stroke-width="4" stroke-linecap="round" stroke-linejoin="round"/>
<path d="M57.6727 187.617C42.6224 191.867 29.9451 203.688 24.6372 218.389" stroke="#3B3748" stroke-width="4" stroke-linecap="round" stroke-linejoin="round"/>
<path d="M164.714 4.07153C158.842 18.5583 160.39 35.8327 168.746 49.0453" stroke="#3B3748" stroke-width="4" stroke-linecap="round" stroke-linejoin="round"/>
<path d="M103.746 133.515C109.061 130.112 113.724 125.787 117.517 120.743C121.186 115.909 123.892 110.415 125.488 104.56C127.125 98.3741 127.41 91.908 126.322 85.6025C125.315 79.498 122.947 73.6985 119.393 68.6345C115.805 63.5525 111.024 59.4291 105.471 56.6263C99.9457 53.8682 93.7671 52.3467 87.5776 52.5134C81.5669 52.6515 75.7068 54.4216 70.6244 57.6344C65.6511 60.7917 61.5616 65.1615 58.74 70.3335C55.9611 75.5003 54.5313 81.4466 55.0796 87.3149C55.6193 93.2635 57.8096 98.9429 61.4034 103.713C62.3594 104.99 63.4019 106.2 64.5237 107.334C65.648 108.436 66.8497 109.457 68.1196 110.388C70.5664 112.194 73.283 113.602 76.1689 114.56C82.2078 116.598 89.1068 116.635 95.1296 114.509C98.2819 113.411 101.199 111.729 103.73 109.552C106.012 107.555 107.918 105.165 109.358 102.495C112.314 97.0543 113.389 90.4923 111.658 84.4842C109.931 78.668 105.987 73.7642 100.677 70.8308C97.9521 69.3275 94.9292 68.4446 91.8239 68.2448C88.6983 68.0512 85.6425 68.7662 82.7991 70.0135C77.424 72.3684 73.0271 77.2718 71.4603 82.952C69.7806 89.0408 71.6377 96.0112 76.2603 100.355C77.401 101.453 78.7103 102.361 80.1384 103.044C81.6883 103.756 83.3425 104.215 85.0378 104.404C88.0403 104.726 91.0706 104.146 93.7429 102.74C95.0583 102.056 96.2465 101.151 97.2555 100.065C98.3603 98.8536 99.2265 97.4446 99.8087 95.9118C100.841 93.2881 100.884 90.1806 100.11 87.4843C99.3209 84.6157 97.5154 82.1322 95.0302 80.4975" stroke="#3B3748" stroke-width="4" stroke-linecap="round"/>
<path d="M75.6792 5.84311C81.565 1.61993 89.7244 0.800094 96.3331 3.76788C102.942 6.73567 107.75 13.3809 108.505 20.5853C109.024 25.5451 107.511 30.943 103.633 34.0721C99.7544 37.2012 93.3553 37.228 90.1571 33.4054C87.7383 30.5263 87.6335 26.1821 89.2218 22.7842C90.8102 19.3863 93.8471 16.8433 97.1609 15.0825C105.105 10.8567 115.114 10.7814 123.128 14.8621C131.142 18.9428 136.953 27.1042 138.197 36.0183" stroke="#3B3748" stroke-width="4" stroke-linecap="round" stroke-linejoin="round"/>
<path d="M82.8296 193.809C85.832 195.762 88.4667 198.245 90.6095 201.14C92.6821 203.915 94.2108 207.068 95.1128 210.429C96.0376 213.979 96.1981 217.691 95.5835 221.31C95.0148 224.814 93.6769 228.142 91.6692 231.049C89.6422 233.966 86.9415 236.333 83.8043 237.941C80.6827 239.525 77.1921 240.398 73.6954 240.302C70.2997 240.223 66.9891 239.207 64.1178 237.363C61.3082 235.551 58.9979 233.042 57.4038 230.074C55.8339 227.108 55.0261 223.695 55.3359 220.327C55.6408 216.913 56.8782 213.653 58.9085 210.915C59.4485 210.182 60.0375 209.487 60.6712 208.836C61.3064 208.204 61.9853 207.618 62.7028 207.084C64.0851 206.047 65.6197 205.239 67.2501 204.689C70.6618 203.519 74.5593 203.498 77.9619 204.718C79.7427 205.348 81.3909 206.314 82.8205 207.563C84.11 208.71 85.1868 210.081 85.9998 211.614C87.67 214.737 88.2773 218.503 87.2995 221.952C86.3236 225.29 84.0954 228.105 81.0957 229.788C79.5564 230.651 77.8486 231.158 76.0943 231.273C74.3285 231.384 72.6022 230.973 70.9958 230.258C67.9592 228.906 65.4752 226.091 64.59 222.831C63.6411 219.336 64.6902 215.335 67.3017 212.842C67.9462 212.212 68.6859 211.691 69.4927 211.299C70.3683 210.89 71.3028 210.626 72.2606 210.518C73.9568 210.334 75.6687 210.666 77.1784 211.473C77.9215 211.866 78.5928 212.385 79.1629 213.009C79.787 213.704 80.2763 214.513 80.6053 215.392C81.1883 216.898 81.2126 218.682 80.7753 220.23C80.3297 221.876 79.3097 223.302 77.9057 224.24" stroke="#3B3748" stroke-width="4" stroke-linecap="round"/>
</svg>
