<svg width="48" height="48" viewBox="0 0 48 48" fill="none" xmlns="http://www.w3.org/2000/svg">
<path d="M0 22C0 9.84974 9.84974 0 22 0H48V48H22C9.84974 48 0 38.1503 0 26V22Z" fill="#7100FF"/>
<path d="M30.6667 23C22.6131 23 26.2665 23 17.3333 23C16.9797 23 16.6406 23.1054 16.3905 23.2929C16.1405 23.4804 16 23.7348 16 24C16 24.2652 16.1405 24.5196 16.3905 24.7071C16.6406 24.8946 16.9797 25 17.3333 25C25.8332 25 22.9762 25 30.6667 25C31.0203 25 31.3594 24.8946 31.6095 24.7071C31.8595 24.5196 32 24.2652 32 24C32 23.7348 31.8595 23.4804 31.6095 23.2929C31.3594 23.1054 31.0203 23 30.6667 23Z" fill="white"/>
</svg>
