<svg width="320" height="252" viewBox="0 0 320 252" fill="none" xmlns="http://www.w3.org/2000/svg">
<path d="M201.448 64.0127C202.021 64.9572 203.251 65.2585 204.196 64.6857C205.14 64.1129 205.441 62.8829 204.869 61.9385L201.448 64.0127ZM188.94 52.144C187.839 52.0592 186.877 52.8832 186.793 53.9845C186.708 55.0858 187.532 56.0474 188.633 56.1322L188.94 52.144ZM132.793 235.922C132.151 236.82 132.359 238.069 133.257 238.712C134.156 239.354 135.405 239.147 136.047 238.248L132.793 235.922ZM152.268 172.983L150.288 173.27L150.288 173.271L152.268 172.983ZM117.022 147.375L117.821 149.208L117.822 149.208L117.022 147.375ZM103.59 159.851L105.173 158.629L105.173 158.629L103.59 159.851ZM125.864 152.89L126.672 154.719C127.68 154.273 128.138 153.096 127.695 152.087C127.253 151.077 126.077 150.616 125.067 151.055L125.864 152.89ZM106.305 165.693L104.311 165.839C104.32 165.972 104.343 166.104 104.379 166.232L106.305 165.693ZM127.646 160.175L128.673 161.891C129.574 161.352 129.905 160.208 129.43 159.271C128.956 158.335 127.838 157.924 126.87 158.332L127.646 160.175ZM110.682 173.297L112.498 172.46C112.483 172.427 112.467 172.395 112.45 172.363L110.682 173.297ZM132.008 168.735C132.897 168.08 133.087 166.828 132.432 165.938C131.776 165.049 130.524 164.859 129.635 165.514L132.008 168.735ZM69.2351 191.274C69.0201 190.191 67.9674 189.487 66.884 189.702C65.8006 189.917 65.0966 190.969 65.3116 192.053L69.2351 191.274ZM84.5466 197.453C85.294 196.64 85.2404 195.374 84.427 194.627C83.6136 193.88 82.3484 193.933 81.6011 194.747L84.5466 197.453ZM75.8356 143.56C74.9261 142.933 73.6807 143.162 73.0539 144.071C72.427 144.981 72.6562 146.226 73.5657 146.853L75.8356 143.56ZM98.4876 175.922L99.6806 177.527C100.391 176.999 100.67 176.067 100.366 175.235L98.4876 175.922ZM78.819 188.049C77.9324 188.707 77.7479 189.96 78.4068 190.847C79.0657 191.733 80.3185 191.918 81.205 191.259L78.819 188.049ZM42.9843 161.331C44.0098 161.741 45.1738 161.243 45.5843 160.217C45.9948 159.192 45.4963 158.028 44.4708 157.617L42.9843 161.331ZM19.9792 162.367L21.8109 163.17L21.811 163.17L19.9792 162.367ZM22.381 175.263L20.7107 176.363L20.7108 176.363L22.381 175.263ZM56.4403 191.807C57.5285 191.617 58.257 190.581 58.0674 189.493C57.8779 188.405 56.8421 187.676 55.7539 187.866L56.4403 191.807ZM36.4687 167.031C36.5307 165.928 35.687 164.984 34.5842 164.921C33.4814 164.859 32.5371 165.703 32.475 166.806L36.4687 167.031ZM39.1522 178.465C40.1349 178.969 41.3404 178.582 41.8448 177.599C42.3491 176.616 41.9614 175.411 40.9787 174.906L39.1522 178.465ZM45.263 138.492C46.33 138.778 47.4266 138.145 47.7124 137.078C47.9981 136.011 47.3648 134.914 46.2979 134.628L45.263 138.492ZM10.8999 147.465L12.4254 148.759L12.4255 148.758L10.8999 147.465ZM9.315 168.757L10.6076 170.283C11.0526 169.906 11.3109 169.354 11.315 168.771C11.319 168.188 11.0683 167.632 10.6285 167.249L9.315 168.757ZM26.7271 205.613L27.8977 207.235C28.6554 206.688 28.9333 205.689 28.5671 204.829C28.201 203.97 27.2883 203.478 26.369 203.645L26.7271 205.613ZM12.752 246.949L13.8686 245.289L13.8685 245.289L12.752 246.949ZM46.4657 235.831C47.1931 235 47.1089 233.736 46.2776 233.009C45.4464 232.281 44.1828 232.365 43.4554 233.197L46.4657 235.831ZM65.6078 159.087C65.4531 157.993 64.4411 157.232 63.3474 157.387C62.2537 157.542 61.4925 158.554 61.6472 159.647L65.6078 159.087ZM62.8131 167.889C62.9678 168.983 63.9799 169.744 65.0735 169.589C66.1672 169.435 66.9284 168.423 66.7737 167.329L62.8131 167.889ZM37.066 206.244C36.1964 206.925 36.0437 208.182 36.7248 209.052C37.406 209.921 38.6631 210.074 39.5326 209.393L37.066 206.244ZM70.0772 206.405L68.9882 208.082L68.9884 208.082L70.0772 206.405ZM86.8571 246.674C87.0368 247.764 88.066 248.502 89.1559 248.322C90.2457 248.142 90.9835 247.113 90.8038 246.023L86.8571 246.674ZM196.778 38.7476L195.759 37.0267C195.058 37.4417 194.679 38.2403 194.8 39.0457C194.922 39.8511 195.52 40.5024 196.312 40.6924L196.778 38.7476ZM274.964 48.1821L274.954 50.1821C275.493 50.1847 276.011 49.9695 276.389 49.5854C276.767 49.2012 276.974 48.6806 276.963 48.1416L274.964 48.1821ZM245.854 10.9503L245.129 9.08624L245.129 9.08625L245.854 10.9503ZM232.764 29.5506L232.678 31.5488C233.638 31.5899 234.492 30.9425 234.711 30.007L232.764 29.5506ZM253.815 50.7444C253.266 49.7858 252.044 49.4535 251.085 50.0023C250.127 50.551 249.794 51.773 250.343 52.7316L253.815 50.7444ZM266.595 59.9621L267.951 61.4318C268.562 60.8683 268.76 59.986 268.45 59.2152C268.14 58.4444 267.385 57.9458 266.554 57.9625L266.595 59.9621ZM263.588 67.6514L261.595 67.8115C261.596 67.8222 261.596 67.8328 261.598 67.8435L263.588 67.6514ZM266.818 76.3781C267.748 76.9732 268.985 76.7014 269.58 75.7709C270.176 74.8404 269.904 73.6036 268.973 73.0084L266.818 76.3781ZM247.855 81.0714C247.19 80.1895 245.936 80.0136 245.054 80.6786C244.172 81.3436 243.996 82.5977 244.661 83.4796L247.855 81.0714ZM247.092 89.9069L248.888 90.7865C248.896 90.7704 248.903 90.7543 248.911 90.7381L247.092 89.9069ZM240.58 92.1046C239.476 92.1497 238.618 93.081 238.663 94.1847C238.709 95.2883 239.64 96.1464 240.743 96.1012L240.58 92.1046ZM225.424 45.8959C225.981 44.9424 225.66 43.7174 224.707 43.1598C223.753 42.6021 222.528 42.9231 221.971 43.8765L225.424 45.8959ZM215.032 83.5038L213.04 83.679C213.117 84.5609 213.765 85.2868 214.633 85.4635L215.032 83.5038ZM237.61 90.1452C238.692 90.3657 239.749 89.6671 239.969 88.5847C240.19 87.5024 239.491 86.4462 238.409 86.2257L237.61 90.1452ZM236.821 52.9489C236.497 51.8929 235.379 51.2992 234.323 51.6229C233.267 51.9467 232.673 53.0652 232.997 54.1213L236.821 52.9489ZM235.179 61.2388C235.502 62.2949 236.621 62.8885 237.677 62.5648C238.733 62.2411 239.327 61.1225 239.003 60.0664L235.179 61.2388ZM274.451 46.3884C273.496 46.9442 273.173 48.1686 273.729 49.1231C274.285 50.0777 275.509 50.401 276.464 49.8452L274.451 46.3884ZM296.231 67.0588L294.417 66.216C294.032 67.0449 294.257 68.0295 294.965 68.6078C295.673 69.186 296.683 69.2107 297.419 68.6678L296.231 67.0588ZM291.855 95.3276C290.788 95.0444 289.693 95.6803 289.409 96.7479C289.126 97.8155 289.762 98.9106 290.83 99.1939L291.855 95.3276ZM282.659 23.7725C281.584 24.0275 280.919 25.1055 281.174 26.1802C281.429 27.2549 282.507 27.9195 283.582 27.6645L282.659 23.7725ZM293.186 25.386C294.261 25.131 294.925 24.0531 294.67 22.9784C294.415 21.9036 293.337 21.2391 292.263 21.494L293.186 25.386ZM288.709 14.4061C289.688 13.8951 290.067 12.6869 289.556 11.7077C289.045 10.7285 287.837 10.349 286.858 10.8601L288.709 14.4061ZM278.659 15.1392C277.68 15.6503 277.301 16.8584 277.812 17.8376C278.323 18.8169 279.531 19.1964 280.51 18.6853L278.659 15.1392ZM272.035 7.64623C271.209 8.37902 271.133 9.64307 271.866 10.4696C272.598 11.2961 273.862 11.372 274.689 10.6393L272.035 7.64623ZM282.745 3.49651C283.572 2.76373 283.648 1.49968 282.915 0.673181C282.182 -0.15332 280.918 -0.229295 280.092 0.503487L282.745 3.49651ZM106.849 116.41C106.913 115.307 106.071 114.361 104.968 114.297C103.865 114.233 102.92 115.075 102.856 116.178L106.849 116.41ZM106.973 133.859L108.772 132.984L108.772 132.984L106.973 133.859ZM117.229 137.743L116.371 135.937L116.371 135.937L117.229 137.743ZM122.517 128.8L124.476 129.201L124.476 129.201L122.517 128.8ZM125.729 108.988C125.643 107.887 124.68 107.064 123.579 107.15C122.478 107.236 121.655 108.198 121.741 109.299L125.729 108.988ZM105.221 124.55C104.126 124.692 103.353 125.696 103.496 126.791C103.638 127.886 104.641 128.659 105.737 128.517L105.221 124.55ZM123.385 126.222C124.48 126.079 125.253 125.076 125.11 123.981C124.968 122.885 123.965 122.113 122.869 122.255L123.385 126.222ZM115.897 138.601C115.757 137.506 114.756 136.73 113.66 136.87C112.564 137.009 111.789 138.01 111.928 139.106L115.897 138.601ZM113.132 148.563C113.271 149.659 114.272 150.434 115.368 150.295C116.464 150.155 117.239 149.154 117.1 148.058L113.132 148.563ZM135.576 42.7687C135.573 43.8733 136.466 44.7712 137.57 44.7742C138.675 44.7773 139.573 43.8843 139.576 42.7797L135.576 42.7687ZM121.348 33.2802L122.333 35.0206L122.334 35.0197L121.348 33.2802ZM121.463 44.9754L121.31 46.9695L121.312 46.9697L121.463 44.9754ZM127.131 36.438L125.148 36.6988L125.149 36.7L127.131 36.438ZM104.845 23.5578C103.865 24.0687 103.486 25.2768 103.997 26.2561C104.508 27.2354 105.716 27.6151 106.695 27.1041L104.845 23.5578ZM164.65 45.8865C164.682 46.9907 165.602 47.8601 166.707 47.8286C167.811 47.797 168.68 46.8763 168.649 45.7722L164.65 45.8865ZM157.855 24.5377L159.113 22.9828L159.112 22.9819L157.855 24.5377ZM148.264 23.1906L147.196 21.5001L147.196 21.5001L148.264 23.1906ZM145.231 32.1751L147.191 31.7759L147.191 31.7755L145.231 32.1751ZM163.753 51.2952L163.34 53.2522C164.221 53.438 165.118 53.0122 165.531 52.212C165.943 51.4119 165.77 50.4346 165.108 49.8245L163.753 51.2952ZM134.949 60.7447L132.991 60.3336L132.991 60.3343L134.949 60.7447ZM166.119 54.196L168.119 54.2225C168.133 53.1596 167.313 52.2713 166.252 52.2005C165.192 52.1297 164.261 52.901 164.134 53.9564L166.119 54.196ZM170.832 77.0205L169.104 78.027L169.107 78.0327L170.832 77.0205ZM180.889 82.7077L180.144 80.8516L180.143 80.8518L180.889 82.7077ZM183.573 70.4332L185.465 69.7845L185.464 69.7817L183.573 70.4332ZM170.057 50.0462L169.545 48.1128C168.834 48.3008 168.284 48.8633 168.112 49.5776C167.94 50.292 168.174 51.0432 168.72 51.5342L170.057 50.0462ZM184.73 26.1671L185.618 24.375L185.617 24.3748L184.73 26.1671ZM170.872 30.3259L172.54 31.4289L172.541 31.4284L170.872 30.3259ZM164.658 46.0287C164.766 47.128 165.745 47.9312 166.844 47.8227C167.944 47.7142 168.747 46.7352 168.638 45.636L164.658 46.0287ZM174.449 127.654C173.949 126.669 172.745 126.277 171.76 126.777C170.775 127.278 170.383 128.482 170.884 129.467L174.449 127.654ZM185.327 149.91C186.087 150.711 187.353 150.744 188.154 149.983C188.955 149.222 188.987 147.956 188.227 147.155L185.327 149.91ZM167.743 65.5109C168.038 64.4465 167.414 63.3444 166.35 63.0492C165.285 62.7541 164.183 63.3777 163.888 64.4421L167.743 65.5109ZM162.344 104.33C162.547 105.416 163.591 106.132 164.677 105.93C165.763 105.728 166.479 104.684 166.277 103.598L162.344 104.33ZM163.519 101.171L163.25 103.153C164.051 103.262 164.838 102.878 165.246 102.18C165.653 101.482 165.601 100.607 165.112 99.9631L163.519 101.171ZM111.008 73.4128L111.108 71.4153C110.284 71.374 109.519 71.8426 109.182 72.5953C108.845 73.348 109.005 74.2304 109.584 74.8175L111.008 73.4128ZM168.948 114.637L167.778 116.259L167.778 116.259L168.948 114.637ZM176.639 119.821L175.989 121.712C176.934 122.037 177.974 121.614 178.425 120.721C178.875 119.829 178.597 118.741 177.773 118.174L176.639 119.821ZM157.978 111.323L156.562 109.91C156.535 109.937 156.509 109.965 156.483 109.994L157.978 111.323ZM240.82 143.577C241.871 143.237 242.448 142.11 242.108 141.059C241.768 140.008 240.641 139.431 239.59 139.771L240.82 143.577ZM248.469 111.965C249.469 111.495 249.899 110.304 249.429 109.304C248.96 108.305 247.769 107.874 246.769 108.344L248.469 111.965ZM169.846 101.338L171.654 102.194C171.667 102.166 171.679 102.137 171.691 102.109L169.846 101.338ZM183.885 113.453L183.192 115.329C184.17 115.69 185.261 115.24 185.699 114.295C186.138 113.349 185.777 112.226 184.87 111.713L183.885 113.453ZM162.688 105.597L164.317 106.759C164.366 106.69 164.411 106.617 164.451 106.542L162.688 105.597ZM179.655 169.552C178.587 169.831 177.946 170.923 178.225 171.992C178.504 173.061 179.596 173.701 180.665 173.423L179.655 169.552ZM201.068 174.891L202.161 173.216L202.161 173.216L201.068 174.891ZM194.031 199.366L195.261 197.789L195.26 197.788L194.031 199.366ZM193.039 195.476L191.688 194.001L191.682 194.006L193.039 195.476ZM196.071 195.476L196.927 193.668L196.923 193.667L196.071 195.476ZM189.842 216.909C188.743 217.024 187.946 218.007 188.061 219.106C188.176 220.204 189.16 221.002 190.258 220.887L189.842 216.909ZM79.9873 126.519C81.0843 126.648 82.0784 125.864 82.2077 124.767C82.3371 123.67 81.5527 122.676 80.4557 122.546L79.9873 126.519ZM67.8455 121.059C66.7486 120.93 65.7544 121.714 65.6251 122.811C65.4957 123.908 66.2802 124.903 67.3771 125.032L67.8455 121.059ZM87.1339 113.822C88.0498 114.44 89.2928 114.198 89.9102 113.282C90.5276 112.366 90.2856 111.123 89.3697 110.505L87.1339 113.822ZM72.2223 98.9468C71.3064 98.3294 70.0634 98.5714 69.446 99.4873C68.8286 100.403 69.0706 101.646 69.9865 102.264L72.2223 98.9468ZM90.4372 88.691C89.8317 87.7672 88.5919 87.5091 87.6681 88.1145C86.7443 88.72 86.4862 89.9597 87.0916 90.8836L90.4372 88.691ZM94.8002 102.646C95.4057 103.57 96.6454 103.828 97.5693 103.222C98.4931 102.617 98.7512 101.377 98.1457 100.453L94.8002 102.646ZM204.869 61.9385C201.506 56.3941 195.407 52.6421 188.94 52.144L188.633 56.1322C193.814 56.5312 198.754 59.5701 201.448 64.0127L204.869 61.9385ZM136.047 238.248C141.663 230.395 146.881 218.778 150.361 206.829C153.833 194.903 155.655 182.368 154.247 172.695L150.288 173.271C151.578 182.129 149.922 194.028 146.52 205.711C143.125 217.372 138.071 228.54 132.793 235.922L136.047 238.248ZM154.247 172.695C152.949 163.771 149.726 154.331 142.608 148.042L139.959 151.039C146.049 156.421 149.05 164.754 150.288 173.27L154.247 172.695ZM142.608 148.042C135.247 141.536 125.943 141.299 116.222 145.542L117.822 149.208C126.601 145.376 134.114 145.873 139.959 151.039L142.608 148.042ZM116.222 145.541C114.489 146.297 110.313 148.616 106.892 151.211C105.193 152.499 103.534 153.963 102.472 155.436C101.942 156.172 101.464 157.041 101.288 157.996C101.098 159.026 101.274 160.125 102.007 161.074L105.173 158.629C105.173 158.629 105.173 158.629 105.174 158.631C105.175 158.632 105.177 158.634 105.178 158.637C105.182 158.643 105.186 158.65 105.191 158.66C105.2 158.68 105.207 158.702 105.212 158.723C105.222 158.768 105.212 158.775 105.222 158.72C105.248 158.579 105.362 158.267 105.717 157.775C106.425 156.793 107.702 155.616 109.309 154.398C112.496 151.981 116.399 149.828 117.821 149.208L116.222 145.541ZM102.007 161.073C102.676 161.94 103.638 162.26 104.386 162.378C105.153 162.499 105.979 162.457 106.762 162.352C108.336 162.141 110.17 161.611 111.901 161.017C115.386 159.82 118.883 158.207 119.86 157.772L118.232 154.118C117.197 154.579 113.882 156.108 110.602 157.234C108.95 157.801 107.411 158.229 106.23 158.387C105.635 158.467 105.238 158.463 105.01 158.427C104.765 158.388 104.963 158.357 105.173 158.629L102.007 161.073ZM119.86 157.772C121.917 156.855 124.33 155.736 126.661 154.724L125.067 151.055C122.727 152.072 120.2 153.241 118.232 154.118L119.86 157.772ZM125.055 151.06C122.502 152.189 117.396 154.271 113.026 156.645C110.843 157.832 108.727 159.151 107.154 160.537C106.366 161.231 105.647 162 105.129 162.84C104.609 163.682 104.227 164.704 104.311 165.839L108.3 165.546C108.297 165.507 108.298 165.321 108.533 164.94C108.77 164.555 109.179 164.084 109.798 163.539C111.036 162.448 112.844 161.297 114.936 160.16C119.116 157.889 123.961 155.917 126.672 154.719L125.055 151.06ZM104.379 166.232C104.722 167.457 105.47 168.408 106.55 168.977C107.553 169.507 108.681 169.623 109.715 169.573C111.761 169.476 114.174 168.687 116.461 167.753C118.796 166.799 121.217 165.598 123.329 164.527C125.496 163.428 127.254 162.51 128.422 162.018L126.87 158.332C125.53 158.895 123.57 159.92 121.52 160.96C119.414 162.028 117.119 163.163 114.948 164.05C112.729 164.957 110.849 165.515 109.525 165.578C108.874 165.609 108.548 165.509 108.417 165.44C108.361 165.41 108.294 165.38 108.231 165.154L104.379 166.232ZM126.619 158.459C125.658 159.034 124.031 159.84 122.008 160.871C120.038 161.875 117.773 163.052 115.701 164.301C113.66 165.532 111.657 166.918 110.302 168.374C109.043 169.726 107.683 171.904 108.914 174.232L112.45 172.363C112.449 172.36 112.418 172.357 112.469 172.203C112.542 171.984 112.751 171.613 113.23 171.099C114.189 170.069 115.793 168.916 117.766 167.727C119.707 166.557 121.861 165.436 123.824 164.435C125.735 163.461 127.558 162.558 128.673 161.891L126.619 158.459ZM108.866 174.135C109.92 176.419 112.332 176.773 114.15 176.655C116.078 176.53 118.323 175.855 120.488 175C124.849 173.278 129.532 170.559 132.008 168.735L129.635 165.514C127.434 167.136 123.054 169.686 119.019 171.28C116.985 172.083 115.198 172.579 113.892 172.663C113.241 172.706 112.849 172.635 112.646 172.558C112.498 172.501 112.502 172.469 112.498 172.46L108.866 174.135ZM65.3116 192.053C66.1161 196.106 69.2953 199.543 73.267 200.66L74.3503 196.81C71.8283 196.1 69.7465 193.851 69.2351 191.274L65.3116 192.053ZM73.267 200.66C77.2405 201.778 81.753 200.494 84.5466 197.453L81.6011 194.747C79.826 196.679 76.8705 197.519 74.3503 196.81L73.267 200.66ZM73.5657 146.853C84.1447 154.144 92.1971 164.542 96.6092 176.609L100.366 175.235C95.6691 162.39 87.0972 151.321 75.8356 143.56L73.5657 146.853ZM97.2945 174.317L78.819 188.049L81.205 191.259L99.6806 177.527L97.2945 174.317ZM44.4708 157.617C40.4135 155.993 35.806 154.15 30.9163 154.169L30.9323 158.169C34.9158 158.153 38.8041 159.657 42.9843 161.331L44.4708 157.617ZM30.9163 154.169C26.0055 154.189 20.3561 156.524 18.1474 161.564L21.811 163.17C23.164 160.083 26.9699 158.185 30.9323 158.169L30.9163 154.169ZM18.1474 161.564C15.8932 166.707 18.0971 172.394 20.7107 176.363L24.0513 174.163C21.6445 170.508 20.4024 166.384 21.8109 163.17L18.1474 161.564ZM20.7108 176.363C28.2781 187.851 42.8895 194.167 56.4403 191.807L55.7539 187.866C43.7725 189.953 30.7426 184.321 24.0512 174.162L20.7108 176.363ZM32.475 166.806C32.2079 171.556 34.9178 176.292 39.1522 178.465L40.9787 174.906C38.152 173.455 36.2903 170.203 36.4687 167.031L32.475 166.806ZM46.2979 134.628C33.1335 131.103 18.1861 135.776 9.3742 146.172L12.4255 148.758C20.2371 139.543 33.5933 135.367 45.263 138.492L46.2979 134.628ZM9.37432 146.172C6.67863 149.352 4.37161 153.26 3.74908 157.683L7.71004 158.241C8.18959 154.833 10.0087 151.609 12.4254 148.759L9.37432 146.172ZM3.74908 157.683C3.12702 162.103 4.39574 167.125 8.00145 170.265L10.6285 167.249C8.2723 165.197 7.23 161.651 7.71004 158.241L3.74908 157.683ZM8.02239 167.231C0.304453 173.768 -2.25376 185.576 2.06598 194.721L5.6828 193.013C2.13643 185.505 4.27171 175.649 10.6076 170.283L8.02239 167.231ZM2.06598 194.721C6.38579 203.867 17.1338 209.391 27.0851 207.581L26.369 203.645C18.1998 205.132 9.2291 200.521 5.6828 193.013L2.06598 194.721ZM25.5564 203.991C18.6432 208.982 10.9825 214.586 6.87464 222.791L10.4514 224.581C14.0492 217.395 20.8492 212.323 27.8977 207.235L25.5564 203.991ZM6.87464 222.791C4.76779 226.999 3.93589 232.025 4.60617 236.686C5.2778 241.357 7.49018 245.819 11.6354 248.608L13.8685 245.289C10.8755 243.275 9.11695 239.953 8.56545 236.117C8.01261 232.272 8.70538 228.069 10.4514 224.581L6.87464 222.791ZM11.6353 248.608C17.6815 252.677 25.7077 251.826 31.7284 248.727L29.8979 245.17C24.6809 247.855 18.3057 248.276 13.8686 245.289L11.6353 248.608ZM31.7284 248.727C37.7312 245.637 42.3268 240.561 46.4657 235.831L43.4554 233.197C39.2737 237.976 35.1328 242.476 29.8979 245.17L31.7284 248.727ZM61.6472 159.647L62.8131 167.889L66.7737 167.329L65.6078 159.087L61.6472 159.647ZM39.5326 209.393C47.772 202.939 60.2141 202.386 68.9882 208.082L71.1661 204.727C60.9582 198.101 46.6501 198.737 37.066 206.244L39.5326 209.393ZM68.9884 208.082C74.8882 211.911 79.0743 218.151 81.7295 224.974L85.4572 223.524C82.6108 216.209 77.9921 209.157 71.1659 204.727L68.9884 208.082ZM81.7295 224.974C84.3922 231.816 85.6172 239.155 86.8571 246.674L90.8038 246.023C89.5751 238.573 88.296 230.818 85.4572 223.524L81.7295 224.974ZM196.312 40.6924C222.073 46.8712 248.462 50.0555 274.954 50.1821L274.973 46.1822C248.789 46.057 222.707 42.9097 197.245 36.8027L196.312 40.6924ZM276.963 48.1416C276.775 38.8624 276.161 28.6434 271.114 20.1367L267.674 22.1779C272.123 29.6767 272.775 38.8971 272.964 48.2227L276.963 48.1416ZM271.114 20.1367C268.538 15.795 264.519 12.1228 259.944 9.9776C255.362 7.82874 250.087 7.1589 245.129 9.08624L246.578 12.8144C250.293 11.3701 254.414 11.8024 258.246 13.5992C262.086 15.3998 265.502 18.5169 267.674 22.1779L271.114 20.1367ZM245.129 9.08625C236.803 12.3233 232.654 21.2534 230.817 29.0943L234.711 30.007C236.477 22.4721 240.188 15.2987 246.578 12.8144L245.129 9.08625ZM232.849 27.5525C217.573 26.8987 207.949 29.8079 195.759 37.0267L197.797 40.4684C209.384 33.6066 218.248 30.9312 232.678 31.5488L232.849 27.5525ZM250.343 52.7316C253.606 58.4311 260.069 62.0937 266.635 61.9617L266.554 57.9625C261.452 58.0651 256.351 55.1746 253.815 50.7444L250.343 52.7316ZM265.238 58.4923C263.964 59.668 262.974 61.1179 262.343 62.7323L266.069 64.1888C266.479 63.139 267.123 62.1962 267.951 61.4318L265.238 58.4923ZM262.343 62.7323C261.712 64.3468 261.456 66.0835 261.595 67.8115L265.582 67.4914C265.492 66.3679 265.658 65.2386 266.069 64.1888L262.343 62.7323ZM261.598 67.8435C261.764 69.5687 262.32 71.2335 263.225 72.712L266.637 70.6248C266.049 69.6634 265.687 68.581 265.579 67.4594L261.598 67.8435ZM263.225 72.712C264.129 74.1905 265.358 75.4441 266.818 76.3781L268.973 73.0084C268.024 72.4012 267.225 71.5861 266.637 70.6248L263.225 72.712ZM244.661 83.4796C245.258 84.2708 245.63 85.2086 245.737 86.1937L249.714 85.7595C249.528 84.0579 248.886 82.4381 247.855 81.0714L244.661 83.4796ZM245.737 86.1937C245.845 87.1787 245.684 88.1745 245.272 89.0758L248.911 90.7381C249.622 89.1812 249.899 87.4611 249.714 85.7595L245.737 86.1937ZM245.295 89.0274C244.859 89.9176 244.191 90.6734 243.361 91.2151L245.547 94.5649C246.981 93.6294 248.135 92.3239 248.888 90.7865L245.295 89.0274ZM243.361 91.2151C242.531 91.7567 241.57 92.064 240.58 92.1046L240.743 96.1012C242.454 96.0312 244.114 95.5005 245.547 94.5649L243.361 91.2151ZM221.971 43.8765C214.94 55.8978 211.82 69.8066 213.04 83.679L217.024 83.3286C215.877 70.2821 218.812 57.2013 225.424 45.8959L221.971 43.8765ZM214.633 85.4635L237.61 90.1452L238.409 86.2257L215.431 81.5441L214.633 85.4635ZM232.997 54.1213L235.179 61.2388L239.003 60.0664L236.821 52.9489L232.997 54.1213ZM276.464 49.8452C281.084 47.1553 287.499 47.8383 291.449 51.4408L294.144 48.4854C288.903 43.7049 280.581 42.8193 274.451 46.3884L276.464 49.8452ZM291.449 51.4408C295.399 55.0438 296.67 61.3674 294.417 66.216L298.044 67.9017C301.034 61.4679 299.385 53.2654 294.144 48.4854L291.449 51.4408ZM297.419 68.6678C299.905 66.832 303.221 66.3626 306.442 67.1337C309.667 67.9056 312.58 69.8744 314.218 72.6068L317.648 70.5503C315.386 66.7755 311.499 64.2313 307.373 63.2436C303.244 62.255 298.659 62.7792 295.043 65.4499L297.419 68.6678ZM314.218 72.6068C317.573 78.2046 316.078 86.2434 311.182 90.9467L313.953 93.8313C320 88.0218 322.094 77.9666 317.648 70.5503L314.218 72.6068ZM311.182 90.9467C306.297 95.6389 298.635 97.1262 291.855 95.3276L290.83 99.1939C298.719 101.287 307.894 99.652 313.953 93.8313L311.182 90.9467ZM283.582 27.6645L293.186 25.386L292.263 21.494L282.659 23.7725L283.582 27.6645ZM286.858 10.8601L278.659 15.1392L280.51 18.6853L288.709 14.4061L286.858 10.8601ZM274.689 10.6393L282.745 3.49651L280.092 0.503487L272.035 7.64623L274.689 10.6393ZM102.856 116.178C102.732 118.312 102.832 121.912 103.178 125.421C103.353 127.184 103.593 128.961 103.908 130.547C104.218 132.1 104.623 133.599 105.175 134.734L108.772 132.984C108.447 132.317 108.121 131.219 107.832 129.766C107.549 128.346 107.325 126.706 107.159 125.028C106.826 121.655 106.741 118.274 106.849 116.41L102.856 116.178ZM105.175 134.734C106.596 137.655 108.642 139.507 111.081 140.256C113.48 140.992 115.952 140.565 118.088 139.549L116.371 135.937C114.889 136.641 113.463 136.802 112.254 136.432C111.085 136.073 109.812 135.123 108.772 132.984L105.175 134.734ZM118.088 139.549C120.229 138.532 121.643 136.782 122.598 134.93C123.546 133.09 124.101 131.034 124.476 129.201L120.558 128.399C120.211 130.089 119.746 131.733 119.042 133.098C118.345 134.451 117.477 135.411 116.371 135.937L118.088 139.549ZM124.476 129.201C125.836 122.555 126.257 115.751 125.729 108.988L121.741 109.299C122.24 115.69 121.842 122.119 120.558 128.399L124.476 129.201ZM105.737 128.517L123.385 126.222L122.869 122.255L105.221 124.55L105.737 128.517ZM111.928 139.106L113.132 148.563L117.1 148.058L115.897 138.601L111.928 139.106ZM139.576 42.7797C139.588 38.2813 137.084 33.9008 133.2 31.6295L131.181 35.0825C133.835 36.6343 135.584 39.6951 135.576 42.7687L139.576 42.7797ZM133.2 31.6295C129.316 29.3586 124.27 29.3226 120.361 31.5406L122.334 35.0197C125.001 33.5067 128.526 33.5302 131.181 35.0825L133.2 31.6295ZM120.362 31.5398C117.695 33.0499 115.299 35.8572 115.093 39.3271L119.086 39.5642C119.189 37.8326 120.467 36.0771 122.333 35.0206L120.362 31.5398ZM115.093 39.3271C114.985 41.1446 115.601 42.9436 116.657 44.3255C117.716 45.7117 119.333 46.8177 121.31 46.9695L121.617 42.9813C121.002 42.9341 120.354 42.5756 119.836 41.8969C119.314 41.2138 119.039 40.3475 119.086 39.5642L115.093 39.3271ZM121.312 46.9697C124.216 47.1903 126.756 45.3495 128.006 43.1376L124.524 41.1691C123.847 42.3675 122.62 43.0576 121.615 42.9812L121.312 46.9697ZM128.006 43.1376C129.26 40.9195 129.404 38.3666 129.114 36.1759L125.149 36.7C125.373 38.3978 125.198 39.977 124.524 41.1691L128.006 43.1376ZM129.114 36.1771C128.416 30.867 125.018 26.0187 120.267 23.5477L118.421 27.0964C122.014 28.9654 124.62 32.6842 125.148 36.6988L129.114 36.1771ZM120.267 23.5477C115.515 21.0764 109.594 21.0798 104.845 23.5578L106.695 27.1041C110.287 25.2302 114.828 25.2277 118.421 27.0964L120.267 23.5477ZM168.649 45.7722C168.39 36.7243 164.678 27.4854 159.113 22.9828L156.597 26.0926C160.971 29.6313 164.413 37.5833 164.65 45.8865L168.649 45.7722ZM159.112 22.9819C157.566 21.7328 155.567 20.8009 153.508 20.4394C151.451 20.0784 149.155 20.2614 147.196 21.5001L149.333 24.881C150.221 24.3195 151.433 24.1364 152.816 24.3792C154.197 24.6215 155.57 25.2632 156.598 26.0935L159.112 22.9819ZM147.196 21.5001C145.882 22.3304 144.684 23.9106 143.927 25.7546C143.149 27.6522 142.753 30.0287 143.272 32.5746L147.191 31.7755C146.852 30.1106 147.108 28.5415 147.628 27.2728C148.17 25.9505 148.918 25.1439 149.333 24.881L147.196 21.5001ZM143.272 32.5742C144.335 37.7955 148.038 41.6644 151.827 44.7433C153.737 46.2955 155.767 47.7212 157.598 49.0325C159.463 50.3686 161.106 51.5753 162.398 52.766L165.108 49.8245C163.609 48.4427 161.771 47.1015 159.927 45.7808C158.049 44.4353 156.142 43.0952 154.349 41.6389C150.733 38.7009 147.966 35.5822 147.191 31.7759L143.272 32.5742ZM164.166 49.3383C158.677 48.1809 152.569 47.0137 146.579 48.2397L147.381 52.1585C152.45 51.1209 157.784 52.0806 163.34 53.2522L164.166 49.3383ZM146.579 48.2397C140.567 49.4702 134.372 53.7633 132.991 60.3336L136.906 61.1558C137.849 56.6665 142.333 53.1916 147.381 52.1585L146.579 48.2397ZM132.991 60.3343C131.536 67.2765 136.343 74.3704 142.786 76.5668L144.077 72.7808C139.27 71.1421 135.923 65.8457 136.906 61.1551L132.991 60.3343ZM142.786 76.5668C149.249 78.7701 156.558 76.4389 161.213 71.8029L158.391 68.9685C154.625 72.7185 148.863 74.4125 144.077 72.7808L142.786 76.5668ZM161.213 71.8029C165.875 67.1611 168.035 60.5608 168.119 54.2225L164.119 54.1696C164.046 59.7136 162.151 65.2244 158.391 68.9685L161.213 71.8029ZM164.134 53.9564C163.126 62.3071 164.871 70.7585 169.104 78.027L172.56 76.014C168.766 69.4981 167.201 61.9217 168.105 54.4357L164.134 53.9564ZM169.107 78.0327C170.283 80.0368 172.014 82.1075 174.091 83.4817C176.183 84.8649 178.865 85.6758 181.634 84.5636L180.143 80.8518C179.008 81.3081 177.727 81.0904 176.298 80.1455C174.856 79.1915 173.511 77.6343 172.557 76.0084L169.107 78.0327ZM181.634 84.5638C184.697 83.3344 186.014 80.5523 186.391 77.8431C186.766 75.1506 186.29 72.1909 185.465 69.7845L181.681 71.082C182.36 73.0631 182.696 75.3762 182.429 77.2918C182.165 79.1908 181.388 80.3521 180.144 80.8516L181.634 84.5638ZM185.464 69.7817C182.654 61.6261 177.811 54.3216 171.393 48.5581L168.72 51.5342C174.632 56.8433 179.093 63.5721 181.682 71.0847L185.464 69.7817ZM170.568 51.9795C176.38 50.4409 183.328 48.5278 187.768 43.3237L184.725 40.7275C181.224 44.8302 175.571 46.5174 169.545 48.1128L170.568 51.9795ZM187.768 43.3237C190.118 40.5692 191.25 36.7621 191.031 33.2462C190.811 29.7185 189.185 26.142 185.618 24.375L183.842 27.9592C185.762 28.9102 186.879 30.9363 187.038 33.4949C187.198 36.0654 186.345 38.8285 184.725 40.7275L187.768 43.3237ZM185.617 24.3748C179.817 21.5024 172.977 23.5118 169.203 29.2235L172.541 31.4284C175.291 27.2659 179.991 26.0521 183.842 27.9594L185.617 24.3748ZM169.204 29.2229C166.035 34.016 164.075 40.1223 164.658 46.0287L168.638 45.636C168.164 40.8246 169.768 35.6219 172.54 31.4289L169.204 29.2229ZM170.884 129.467C174.685 136.943 179.55 143.829 185.327 149.91L188.227 147.155C182.716 141.355 178.076 134.786 174.449 127.654L170.884 129.467ZM163.888 64.4421C160.29 77.4157 159.891 91.1426 162.344 104.33L166.277 103.598C163.927 90.9708 164.318 77.8615 167.743 65.5109L163.888 64.4421ZM165.112 99.9631C152.407 83.2053 132.112 72.4683 111.108 71.4153L110.907 75.4103C130.731 76.404 149.933 86.5621 161.925 102.38L165.112 99.9631ZM109.584 74.8175C123.625 89.0477 143.254 100.444 163.25 103.153L163.787 99.1895C144.845 96.623 125.99 85.7489 112.431 72.008L109.584 74.8175ZM167.778 116.259C170.457 118.191 173.612 120.165 175.504 121.468L177.773 118.174C175.572 116.658 172.831 114.972 170.118 113.015L167.778 116.259ZM177.289 117.929C176.385 117.619 175.02 116.834 173.259 115.708C171.617 114.657 169.593 113.285 167.748 112.139C165.882 110.98 163.92 109.87 162.167 109.261C160.605 108.719 158.232 108.239 156.562 109.91L159.393 112.737C159.233 112.897 159.364 112.523 160.856 113.04C162.157 113.492 163.798 114.394 165.637 115.537C167.498 116.693 169.282 117.912 171.104 119.077C172.808 120.167 174.562 121.222 175.989 121.712L177.289 117.929ZM156.483 109.994C155.696 110.879 155.472 111.969 155.552 112.981C155.63 113.952 155.987 114.931 156.464 115.855C157.422 117.709 159.102 119.799 161.274 121.957C165.645 126.301 172.367 131.272 180.532 135.597C196.82 144.225 219.327 150.52 240.82 143.577L239.59 139.771C219.539 146.248 198.206 140.433 182.404 132.062C174.523 127.888 168.137 123.138 164.093 119.12C162.057 117.096 160.703 115.345 160.018 114.02C159.675 113.354 159.559 112.909 159.54 112.663C159.523 112.456 159.578 112.534 159.472 112.653L156.483 109.994ZM246.769 108.344C229.198 116.593 211.307 112.49 197.033 107.12C193.476 105.781 190.167 104.374 187.155 103.071C184.163 101.777 181.417 100.565 179.071 99.661C176.766 98.7735 174.613 98.0863 172.84 97.9713C171.936 97.9127 170.963 97.9891 170.071 98.3992C169.116 98.8379 168.41 99.5879 168.001 100.566L171.691 102.109C171.729 102.019 171.735 102.036 171.741 102.034C171.809 102.003 172.045 101.928 172.581 101.963C173.689 102.035 175.342 102.511 177.633 103.394C179.881 104.26 182.52 105.424 185.566 106.742C188.591 108.05 191.973 109.49 195.624 110.863C210.18 116.34 229.389 120.922 248.469 111.965L246.769 108.344ZM168.039 100.482C167.583 101.443 167.68 102.416 167.945 103.192C168.201 103.945 168.653 104.638 169.139 105.244C170.115 106.46 171.549 107.71 173.085 108.883C176.186 111.252 180.126 113.624 182.9 115.194L184.87 111.713C182.145 110.17 178.394 107.905 175.513 105.705C174.059 104.593 172.93 103.576 172.258 102.74C171.921 102.32 171.778 102.041 171.73 101.901C171.691 101.784 171.772 101.943 171.654 102.194L168.039 100.482ZM184.578 111.577C182.848 110.938 180.804 109.943 178.616 108.814C176.478 107.712 174.161 106.461 172.074 105.429C169.997 104.404 167.926 103.482 166.199 103.061C165.342 102.853 164.39 102.721 163.485 102.874C162.496 103.041 161.505 103.571 160.926 104.653L164.451 106.542C164.327 106.773 164.109 106.825 164.152 106.818C164.278 106.797 164.617 106.793 165.253 106.948C166.511 107.254 168.235 107.995 170.302 109.016C172.359 110.032 174.536 111.211 176.783 112.369C178.98 113.502 181.213 114.598 183.192 115.329L184.578 111.577ZM161.06 104.436C160.251 105.571 160.083 106.848 160.361 108.062C160.621 109.194 161.252 110.226 161.965 111.12C163.39 112.907 165.589 114.68 167.778 116.259L170.118 113.015C167.969 111.465 166.154 109.957 165.092 108.626C164.561 107.96 164.331 107.475 164.26 107.168C164.209 106.944 164.242 106.863 164.317 106.759L161.06 104.436ZM180.665 173.423C187.153 171.73 194.357 172.903 199.976 176.566L202.161 173.216C195.598 168.936 187.234 167.575 179.655 169.552L180.665 173.423ZM199.976 176.566C203.528 178.883 206.385 182.181 207.505 186.005L211.344 184.88C209.887 179.909 206.283 175.904 202.161 173.216L199.976 176.566ZM207.505 186.005C208.629 189.839 207.788 194.187 205.147 196.801L207.961 199.643C211.839 195.805 212.798 189.843 211.344 184.88L207.505 186.005ZM205.147 196.801C202.489 199.432 197.959 199.895 195.261 197.789L192.8 200.942C197.326 204.474 204.102 203.464 207.961 199.643L205.147 196.801ZM195.26 197.788C195.117 197.676 194.963 197.52 194.83 197.335C194.695 197.149 194.607 196.973 194.562 196.834C194.515 196.692 194.533 196.653 194.526 196.701C194.513 196.78 194.463 196.883 194.395 196.946L191.682 194.006C190.335 195.249 190.383 196.928 190.761 198.082C191.135 199.221 191.917 200.255 192.802 200.943L195.26 197.788ZM194.389 196.951C194.261 197.068 194.173 197.016 194.363 197.028C194.568 197.041 194.874 197.123 195.219 197.285L196.923 193.667C196.296 193.371 195.483 193.09 194.612 193.036C193.727 192.981 192.609 193.157 191.688 194.001L194.389 196.951ZM195.215 197.283C199.155 199.15 201.314 204.323 200.065 208.696L203.911 209.795C205.646 203.72 202.8 196.451 196.927 193.668L195.215 197.283ZM200.065 208.696C198.82 213.056 194.515 216.419 189.842 216.909L190.258 220.887C196.383 220.245 202.172 215.884 203.911 209.795L200.065 208.696ZM80.4557 122.546L67.8455 121.059L67.3771 125.032L79.9873 126.519L80.4557 122.546ZM89.3697 110.505L72.2223 98.9468L69.9865 102.264L87.1339 113.822L89.3697 110.505ZM87.0916 90.8836L94.8002 102.646L98.1457 100.453L90.4372 88.691L87.0916 90.8836Z" fill="white"/>
</svg>
